<svg width="17" height="17" viewBox="0 0 17 17" fill="none" xmlns="http://www.w3.org/2000/svg">
<path d="M15.4454 7.11273H14.8748V7.08334H8.49984V9.91667H12.503C11.919 11.566 10.3497 12.75 8.49984 12.75C6.15278 12.75 4.24984 10.8471 4.24984 8.50001C4.24984 6.15294 6.15278 4.25001 8.49984 4.25001C9.58323 4.25001 10.5689 4.65871 11.3194 5.32632L13.3229 3.3228C12.0578 2.14378 10.3656 1.41667 8.49984 1.41667C4.58807 1.41667 1.4165 4.58823 1.4165 8.50001C1.4165 12.4118 4.58807 15.5833 8.49984 15.5833C12.4116 15.5833 15.5832 12.4118 15.5832 8.50001C15.5832 8.02507 15.5343 7.56146 15.4454 7.11273Z" fill="#FFC107"/>
<path d="M2.2334 5.20307L4.56063 6.9098C5.19034 5.35076 6.71538 4.25001 8.50002 4.25001C9.58342 4.25001 10.5691 4.65871 11.3195 5.32632L13.3231 3.3228C12.058 2.14378 10.3658 1.41667 8.50002 1.41667C5.77931 1.41667 3.41986 2.95269 2.2334 5.20307Z" fill="#FF3D00"/>
<path d="M8.49979 15.5833C10.3294 15.5833 11.9919 14.8831 13.2488 13.7445L11.0565 11.8894C10.3215 12.4484 9.42326 12.7507 8.49979 12.75C6.65741 12.75 5.09306 11.5752 4.50372 9.93579L2.19385 11.7155C3.36614 14.0094 5.74685 15.5833 8.49979 15.5833Z" fill="#4CAF50"/>
<path d="M15.4456 7.11272H14.875V7.08333H8.5V9.91666H12.5031C12.2238 10.7016 11.7206 11.3876 11.0557 11.8897L11.0567 11.889L13.249 13.7441C13.0939 13.8851 15.5833 12.0417 15.5833 8.49999C15.5833 8.02506 15.5345 7.56145 15.4456 7.11272Z" fill="#1976D2"/>
</svg>
