<svg width="52" height="48" viewBox="0 0 52 48" fill="none" xmlns="http://www.w3.org/2000/svg">
<path d="M23.5625 38.6L9.26249 25.4C9.04582 25.2 8.89199 24.9833 8.80099 24.75C8.71143 24.5166 8.66666 24.2666 8.66666 24C8.66666 23.7333 8.71143 23.4833 8.80099 23.25C8.89199 23.0166 9.04582 22.8 9.26249 22.6L23.5625 9.39998C23.9597 9.03331 24.4559 8.84132 25.051 8.82398C25.6475 8.80798 26.1625 8.99998 26.5958 9.39998C27.0292 9.76665 27.2552 10.2246 27.274 10.774C27.2913 11.3246 27.0833 11.8 26.65 12.2L16.0333 22H40.2458C40.8597 22 41.3747 22.1913 41.7907 22.574C42.2052 22.958 42.4125 23.4333 42.4125 24C42.4125 24.5666 42.2052 25.0413 41.7907 25.424C41.3747 25.808 40.8597 26 40.2458 26H16.0333L26.65 35.8C27.0472 36.1666 27.2552 36.6333 27.274 37.2C27.2913 37.7666 27.0833 38.2333 26.65 38.6C26.2528 39 25.7472 39.2 25.1333 39.2C24.5194 39.2 23.9958 39 23.5625 38.6Z" fill="black"/>
</svg>
