<svg width="27" height="27" viewBox="0 0 27 27" fill="none" xmlns="http://www.w3.org/2000/svg">
<path d="M12.2344 21.7125L4.80938 14.2875C4.69688 14.175 4.617 14.0531 4.56975 13.9218C4.52325 13.7906 4.5 13.65 4.5 13.5C4.5 13.35 4.52325 13.2093 4.56975 13.0781C4.617 12.9468 4.69688 12.825 4.80938 12.7125L12.2344 5.28747C12.4406 5.08122 12.6983 4.97322 13.0072 4.96347C13.317 4.95447 13.5844 5.06247 13.8094 5.28747C14.0344 5.49372 14.1518 5.75135 14.1615 6.06035C14.1705 6.3701 14.0625 6.63747 13.8375 6.86247L8.325 12.375H20.8969C21.2156 12.375 21.483 12.4826 21.699 12.6978C21.9142 12.9138 22.0219 13.1812 22.0219 13.5C22.0219 13.8187 21.9142 14.0857 21.699 14.301C21.483 14.517 21.2156 14.625 20.8969 14.625H8.325L13.8375 20.1375C14.0437 20.3437 14.1518 20.6062 14.1615 20.925C14.1705 21.2437 14.0625 21.5062 13.8375 21.7125C13.6313 21.9375 13.3688 22.05 13.05 22.05C12.7313 22.05 12.4594 21.9375 12.2344 21.7125Z" fill="black"/>
</svg>
