<svg width="59" height="47" viewBox="0 0 59 47" fill="none" xmlns="http://www.w3.org/2000/svg">
<path d="M26.0433 46.0717L1.04173 25.6483C0.662922 25.3388 0.393964 25.0036 0.234863 24.6426C0.0782871 24.2815 0 23.8947 0 23.4821C0 23.0696 0.0782871 22.6827 0.234863 22.3217C0.393964 21.9607 0.662922 21.6255 1.04173 21.316L26.0433 0.89263C26.7378 0.325313 27.6053 0.0282468 28.6458 0.00142821C29.6888 -0.0233274 30.5891 0.273739 31.3467 0.89263C32.1043 1.45995 32.4996 2.16858 32.5324 3.01852C32.5627 3.87053 32.199 4.60598 31.4414 5.22487L12.8796 20.3877H55.2119C56.2852 20.3877 57.1855 20.6837 57.9128 21.2758C58.6376 21.8699 59 22.6054 59 23.4821C59 24.3589 58.6376 25.0933 57.9128 25.6854C57.1855 26.2795 56.2852 26.5766 55.2119 26.5766H12.8796L31.4414 41.7394C32.1359 42.3067 32.4996 43.0288 32.5324 43.9055C32.5627 44.7823 32.199 45.5043 31.4414 46.0717C30.7469 46.6906 29.863 47 28.7897 47C27.7164 47 26.801 46.6906 26.0433 46.0717Z" fill="black"/>
</svg>
