<svg width="81" height="77" viewBox="0 0 81 77" fill="none" xmlns="http://www.w3.org/2000/svg">
<path d="M40.5 0C45.8707 0 51.0214 2.0262 54.819 5.63287C58.6166 9.23954 60.7501 14.1312 60.7501 19.2318C60.7501 24.3324 58.6166 29.2241 54.819 32.8308C51.0214 36.4375 45.8707 38.4637 40.5 38.4637C35.1294 38.4637 29.9787 36.4375 26.1811 32.8308C22.3835 29.2241 20.25 24.3324 20.25 19.2318C20.25 14.1312 22.3835 9.23954 26.1811 5.63287C29.9787 2.0262 35.1294 0 40.5 0ZM40.5 48.0796C62.8763 48.0796 81.0001 56.6858 81.0001 67.3114V76.9273H0V67.3114C0 56.6858 18.1238 48.0796 40.5 48.0796Z" fill="#FFFEFE"/>
</svg>
