<svg width="55" height="57" viewBox="0 0 55 57" fill="none" xmlns="http://www.w3.org/2000/svg">
<path d="M24.2777 55.8741L0.971108 31.1053C0.617978 30.7301 0.367254 30.3235 0.21894 29.8857C0.0729795 29.4478 0 28.9787 0 28.4783C0 27.978 0.0729795 27.5089 0.21894 27.071C0.367254 26.6332 0.617978 26.2266 0.971108 25.8514L24.2777 1.08255C24.9251 0.394529 25.7338 0.0342568 26.7037 0.00173209C27.676 -0.0282907 28.5152 0.331981 29.2215 1.08255C29.9278 1.77057 30.2962 2.62998 30.3268 3.66076C30.3551 4.69404 30.0161 5.58597 29.3098 6.33654L12.0064 24.7255H51.4687C52.4692 24.7255 53.3085 25.0845 53.9865 25.8026C54.6622 26.5231 55 27.415 55 28.4783C55 29.5417 54.6622 30.4323 53.9865 31.1504C53.3085 31.8709 52.4692 32.2312 51.4687 32.2312H12.0064L29.3098 50.6202C29.9572 51.3082 30.2962 52.1838 30.3268 53.2472C30.3551 54.3105 30.0161 55.1861 29.3098 55.8741C28.6624 56.6247 27.8384 57 26.8379 57C25.8373 57 24.9839 56.6247 24.2777 55.8741Z" fill="black"/>
</svg>
